<svg xmlns="http://www.w3.org/2000/svg" width="1.25em" height="1.25em" viewBox="0 0 30 31" class="s-mr-1 fill yellow-400 svg-icon" fill="currentColor"><rect x="7" y="0.5" width="2" height="7.5" rx="1"></rect><rect x="14" y="0.5" width="2" height="7.5" rx="1"></rect><rect x="21" y="0.5" width="2" height="7.5" rx="1"></rect><rect x="7" y="12" width="2" height="2" rx="1"></rect><rect x="21" y="12" width="2" height="2" rx="1"></rect><rect x="14" y="12" width="2" height="2" rx="1"></rect><rect x="7" y="17" width="2" height="2" rx="1"></rect><rect x="21" y="17" width="2" height="2" rx="1"></rect><rect x="14" y="17" width="2" height="2" rx="1"></rect><rect x="7" y="22" width="2" height="2" rx="1"></rect><rect x="21" y="22" width="2" height="2" rx="1"></rect><rect x="14" y="22" width="2" height="2" rx="1"></rect><rect x="0.5" y="3.5" width="2" height="27" rx="1"></rect><rect x="27.5" y="3.5" width="2" height="27" rx="1"></rect><rect x="29.5" y="28.5" width="2" height="29" rx="1" transform="rotate(90 29.5 28.5)"></rect><rect x="29.5" y="3.5" width="2" height="29" rx="1" transform="rotate(90 29.5 3.5)"></rect></svg>